<svg width="259" height="41" viewBox="0 0 259 41" fill="none" xmlns="http://www.w3.org/2000/svg">
<path d="M78.3563 26.4603C76.3235 29.3588 72.9508 31.2288 68.9314 31.2288C62.3247 31.2288 57.2427 25.8058 57.2427 19.214C57.2427 12.5287 62.3247 7.15243 68.9314 7.15243C72.8584 7.15243 76.2311 8.97569 78.2639 11.7807L74.8451 14.2585C73.5053 12.482 71.4262 11.2665 68.9314 11.2665C64.7272 11.2665 61.5393 14.8195 61.5393 19.214C61.5393 23.5618 64.7272 27.1148 68.9314 27.1148C71.4262 27.1148 73.5977 25.8525 74.9837 23.9358L78.3563 26.4603ZM80.3429 22.9073C80.3429 17.905 84.039 14.6792 88.5204 14.6792C92.9557 14.6792 96.6979 17.905 96.6979 22.9073C96.6979 27.9096 92.9557 31.2288 88.5204 31.2288C84.039 31.2288 80.3429 27.9096 80.3429 22.9073ZM92.6323 22.9073C92.6323 20.3828 90.7842 18.7465 88.5204 18.7465C86.2566 18.7465 84.4086 20.3828 84.4086 22.9073C84.4086 25.4785 86.2566 27.1616 88.5204 27.1616C90.7842 27.1616 92.6323 25.4785 92.6323 22.9073ZM99.7471 7.10568H103.859V30.9951H99.7471V7.10568ZM106.908 22.9073C106.908 17.905 110.604 14.6792 115.086 14.6792C119.521 14.6792 123.263 17.905 123.263 22.9073C123.263 27.9096 119.521 31.2288 115.086 31.2288C110.604 31.2288 106.908 27.9096 106.908 22.9073ZM119.198 22.9073C119.198 20.3828 117.35 18.7465 115.086 18.7465C112.822 18.7465 110.974 20.3828 110.974 22.9073C110.974 25.4785 112.822 27.1616 115.086 27.1616C117.35 27.1616 119.198 25.4785 119.198 22.9073ZM136.661 15.1H140.773V31.0418H136.661V28.7978C135.784 30.4808 133.889 31.3691 132.318 31.3691C128.622 31.3691 126.128 29.0316 126.128 24.4968V15.1H130.286V23.7488C130.286 26.32 131.856 27.3018 133.289 27.3018C134.998 27.3018 136.708 26.3668 136.708 23.5618V15.1H136.661ZM148.489 31.0418H144.377V15.1H148.489V18.84C149.274 15.9415 151.168 14.726 152.924 14.726C154.033 14.726 154.864 14.9597 155.511 15.287L154.818 19.027C153.848 18.6062 152.832 18.6062 152.416 18.6062C149.597 18.6062 148.489 21.1308 148.489 25.3383V31.0418ZM167.569 10.4249H165.86C163.92 10.4249 163.319 11.8742 163.319 13.8377V15.1H166.645V18.4192H163.319V30.9951H159.161V18.4192H156.481V15.1H159.161V13.8377C159.161 9.20944 161.471 6.45117 165.86 6.45117H167.569V10.4249ZM179.351 15.1H183.462V31.0418H179.351V28.7978C178.473 30.4808 176.579 31.3691 175.008 31.3691C171.312 31.3691 168.817 29.0316 168.817 24.4968V15.1H172.975V23.7488C172.975 26.32 174.546 27.3018 175.978 27.3018C177.687 27.3018 179.397 26.3668 179.397 23.5618V15.1H179.351ZM186.835 7.10568H190.947V30.9951H186.835V7.10568Z" fill="url(#paint0_linear)"/>
<path d="M197.276 34.5481H199.263C201.25 34.5481 201.619 32.9118 201.573 31.5561V15.1H205.731V31.4626C205.731 35.5766 204.253 38.3349 199.864 38.3349H197.276V34.5481ZM203.652 6.45117C205.13 6.45117 206.285 7.52643 206.285 8.92894C206.285 10.3782 205.13 11.4535 203.652 11.4535C202.22 11.4535 201.019 10.3782 201.019 8.92894C201.019 7.52643 202.22 6.45117 203.652 6.45117Z" fill="#1F2D58"/>
<path d="M208.272 23.0015C208.272 17.9992 211.968 14.7734 216.449 14.7734C220.885 14.7734 224.627 17.9992 224.627 23.0015C224.627 28.0038 220.885 31.323 216.449 31.323C211.968 31.323 208.272 28.0038 208.272 23.0015ZM220.561 23.0015C220.561 20.477 218.713 18.8407 216.449 18.8407C214.186 18.8407 212.338 20.477 212.338 23.0015C212.338 25.5728 214.186 27.2558 216.449 27.2558C218.713 27.2558 220.561 25.6195 220.561 23.0015Z" fill="#1F2D58"/>
<path d="M227.353 31.0416V7.10547H231.465V17.2035C232.296 15.614 234.283 14.7258 236.362 14.7258C240.52 14.7258 244.078 17.9515 244.078 23.0473C244.078 28.0963 240.474 31.3221 236.362 31.3221C234.329 31.3221 232.296 30.4339 231.465 28.8443V30.9949H227.353V31.0416ZM235.715 27.3951C238.025 27.3951 239.873 25.6653 239.873 23.0473C239.873 20.476 238.025 18.7463 235.715 18.7463C233.59 18.7463 231.557 20.3358 231.557 23.0473C231.557 25.6653 233.498 27.3951 235.715 27.3951Z" fill="#1F2D58"/>
<path d="M246.711 19.4952C246.711 16.924 249.391 14.7734 252.486 14.7734C255.443 14.7734 258.492 16.1292 258.631 19.7757H254.704C254.658 18.5602 253.503 18.1395 252.579 18.1395C251.562 18.1395 250.592 18.5135 250.592 19.729C250.592 20.3835 251.331 20.8042 252.255 21.038L254.889 21.6925C258.538 22.6275 259 25.1987 259 26.461C259 29.6868 255.813 31.3698 252.579 31.3698C249.483 31.3698 246.295 29.453 246.249 25.9935H250.084C250.176 27.1155 251.47 28.0505 252.994 28.0038C254.149 27.957 255.027 27.3025 255.027 26.4143C255.073 25.6195 254.473 25.1987 253.318 24.9182L251.146 24.3572C247.081 23.2352 246.711 21.3652 246.711 19.4952Z" fill="#1F2D58"/>
<path d="M0 20.5234C0 31.8369 9.0553 41 20.2358 41V29.4994C15.3386 29.4994 11.3191 25.4789 11.3191 20.4766C11.3191 15.5211 15.2924 11.4538 20.2358 11.4538V0C9.0553 0 0 9.20981 0 20.5234Z" fill="url(#paint1_linear)"/>
<path d="M43.1053 0H22.9156H22.8694V11.5006H31.7399V20.3831C31.7399 20.4299 31.7399 20.4299 31.7399 20.4766C31.7399 25.4322 27.7667 29.4994 22.8232 29.4994V41C34.0038 41 43.0591 31.8369 43.0591 20.5234C43.0591 20.4299 43.0591 20.3831 43.0591 20.2896V0H43.1053Z" fill="#1F2D58"/>
<defs>
<linearGradient id="paint0_linear" x1="70.0626" y1="18.9019" x2="182.01" y2="18.9019" gradientUnits="userSpaceOnUse">
<stop stop-color="#FF6901"/>
<stop offset="0.0296998" stop-color="#F76B08"/>
<stop offset="0.5112" stop-color="#7B847B"/>
<stop offset="0.8408" stop-color="#2D95C3"/>
<stop offset="0.9912" stop-color="#0E9BDF"/>
</linearGradient>
<linearGradient id="paint1_linear" x1="10.1225" y1="0.0192688" x2="10.1225" y2="40.9912" gradientUnits="userSpaceOnUse">
<stop offset="0.1753" stop-color="#FF6901"/>
<stop offset="0.1999" stop-color="#F76B08"/>
<stop offset="0.5985" stop-color="#7B847B"/>
<stop offset="0.8713" stop-color="#2D95C3"/>
<stop offset="0.9959" stop-color="#0E9BDF"/>
</linearGradient>
</defs>
</svg>
