<svg width="44" height="41" viewBox="0 0 44 41" fill="none" xmlns="http://www.w3.org/2000/svg">
<path d="M0 20.5234C0 31.8369 9.0553 41 20.2358 41V29.4994C15.3386 29.4994 11.3191 25.4789 11.3191 20.4766C11.3191 15.5211 15.2924 11.4538 20.2358 11.4538V0C9.0553 0 0 9.20981 0 20.5234Z" fill="url(#paint0_linear)"/>
<path d="M43.1053 0H22.9156H22.8694V11.5006H31.7399V20.3831C31.7399 20.4299 31.7399 20.4299 31.7399 20.4766C31.7399 25.4322 27.7667 29.4994 22.8232 29.4994V41C34.0038 41 43.0591 31.8369 43.0591 20.5234C43.0591 20.4299 43.0591 20.3831 43.0591 20.2896V0H43.1053Z" fill="#1F2D58"/>
<defs>
<linearGradient id="paint0_linear" x1="10.1225" y1="0.0192688" x2="10.1225" y2="40.9912" gradientUnits="userSpaceOnUse">
<stop offset="0.1753" stop-color="#FF6901"/>
<stop offset="0.1999" stop-color="#F76B08"/>
<stop offset="0.5985" stop-color="#7B847B"/>
<stop offset="0.8713" stop-color="#2D95C3"/>
<stop offset="0.9959" stop-color="#0E9BDF"/>
</linearGradient>
</defs>
</svg>
